<svg xmlns="http://www.w3.org/2000/svg" viewBox="0 0 108 108"><g transform="translate(18 18) scale(0.6)"><rect x="36" y="9" width="9" height="22" rx="4.5" fill="#FFFFFF"/><rect x="75" y="9" width="9" height="22" rx="4.5" fill="#FFFFFF"/><path fill="#FFFFFF" transform="translate(23.339 104.000) scale(0.07733 -0.07733)" d="M213.198486328125 422.1995849609375H486.3997802734375Q535.6004638671875 422.1995849609375 563.6008911132812 444.9998779296875Q591.601318359375 467.8001708984375 591.601318359375 509.0006103515625Q591.601318359375 550.60107421875 563.6008911132812 573.2013549804688Q535.6004638671875 595.8016357421875 486.3997802734375 595.8016357421875H183.9989013671875L277.197509765625 695.0006103515625V0H69.6005859375V750H515.1990966796875Q600.798828125 750 665.0986328125 719.7000732421875Q729.3984375 689.400146484375 765.29833984375 635.6002807617188Q801.1982421875 581.8004150390625 801.1982421875 509.0006103515625Q801.1982421875 438.2008056640625 765.29833984375 384.1009521484375Q729.3984375 330.0010986328125 665.0986328125 300.00115966796875Q600.798828125 270.001220703125 515.1990966796875 270.001220703125H213.198486328125ZM325.199951171875 351H558.19677734375L826.7979736328125 0H586.601318359375Z"/><rect x="68.57" y="81.00" width="30" height="30" rx="7" fill="#0E6FA8"/><rect x="74.07" y="86.50" width="8.5" height="8.5" rx="2" fill="#FFFFFF"/><rect x="85.07" y="86.50" width="8.5" height="8.5" rx="2" fill="#3CC44A"/><rect x="74.07" y="97.50" width="8.5" height="8.5" rx="2" fill="#FFFFFF"/><rect x="85.07" y="97.50" width="8.5" height="8.5" rx="2" fill="#FFFFFF"/></g></svg>
